<svg width="26" height="25" viewBox="0 0 26 25" fill="none" xmlns="http://www.w3.org/2000/svg">
<circle cx="12.605" cy="12.5" r="12.5" fill="#202439" fill-opacity="0.5"/>
<path fill-rule="evenodd" clip-rule="evenodd" d="M14.5824 8.33635V8.96623L16.1808 8.96623C16.2109 8.96135 16.2421 8.95972 16.2738 8.9617C16.2876 8.96256 16.3011 8.96408 16.3145 8.96623H17.2954C17.5253 8.96623 17.7117 9.15264 17.7117 9.38259C17.7117 9.61254 17.5253 9.79896 17.2954 9.79896H16.6387L16.2039 16.7545C16.1559 17.5226 15.519 18.1209 14.7495 18.1209H10.4598C9.69029 18.1209 9.05339 17.5226 9.00539 16.7545L8.57066 9.79896H7.91435C7.6844 9.79896 7.49799 9.61254 7.49799 9.38259C7.49799 9.15264 7.6844 8.96623 7.91435 8.96623H8.89484C8.90818 8.96408 8.92175 8.96256 8.93552 8.9617C8.96726 8.95972 8.99839 8.96135 9.02851 8.96623H10.6269V8.33635C10.6269 7.53152 11.2794 6.87907 12.0842 6.87907H13.1251C13.9299 6.87907 14.5824 7.53152 14.5824 8.33635ZM11.4597 8.33635C11.4597 7.99142 11.7393 7.7118 12.0842 7.7118H13.1251C13.47 7.7118 13.7497 7.99142 13.7497 8.33635V8.96623L11.4597 8.96623V8.33635ZM13.021 10.9386C13.021 10.7087 12.8346 10.5223 12.6047 10.5223C12.3747 10.5223 12.1883 10.7087 12.1883 10.9386V16.1432C12.1883 16.3731 12.3747 16.5595 12.6047 16.5595C12.8346 16.5595 13.021 16.3731 13.021 16.1432V10.9386ZM10.7623 10.5228C10.992 10.5113 11.1874 10.6882 11.1989 10.9178L11.4592 16.1224C11.4706 16.352 11.2938 16.5475 11.0641 16.559C10.8344 16.5705 10.639 16.3936 10.6275 16.164L10.3672 10.9594C10.3558 10.7298 10.5326 10.5343 10.7623 10.5228ZM14.8421 10.9594C14.8536 10.7298 14.6767 10.5343 14.4471 10.5228C14.2174 10.5113 14.0219 10.6882 14.0104 10.9178L13.7502 16.1224C13.7387 16.352 13.9156 16.5475 14.1452 16.559C14.3749 16.5705 14.5704 16.3936 14.5819 16.164L14.8421 10.9594Z" fill="white"/>
</svg>
