<svg width="16" height="16" viewBox="0 0 16 16" fill="none" xmlns="http://www.w3.org/2000/svg">
<path d="M6.53576 7.547L6.00543 7.01667L4.94477 8.07733L5.4751 8.60766L6.53576 7.547ZM7.3535 9.4254L6.82316 9.95572C6.96382 10.0964 7.15458 10.1754 7.3535 10.1754C7.55241 10.1754 7.74317 10.0964 7.88383 9.95572L7.3535 9.4254ZM11.254 6.58557L11.7843 6.05524L10.7237 4.99458L10.1933 5.52491L11.254 6.58557ZM14.355 7.74032C14.355 11.0487 11.673 13.7306 8.36464 13.7306V15.2306C12.5014 15.2306 15.855 11.8771 15.855 7.74032H14.355ZM8.36464 13.7306C5.05628 13.7306 2.37433 11.0487 2.37433 7.74032H0.874329C0.874329 11.8771 4.22786 15.2306 8.36464 15.2306V13.7306ZM2.37433 7.74032C2.37433 4.43196 5.05628 1.75 8.36464 1.75V0.25C4.22786 0.25 0.874329 3.60353 0.874329 7.74032H2.37433ZM8.36464 1.75C11.673 1.75 14.355 4.43196 14.355 7.74032H15.855C15.855 3.60353 12.5014 0.25 8.36464 0.25V1.75ZM5.4751 8.60766L6.82316 9.95572L7.88383 8.89506L6.53576 7.547L5.4751 8.60766ZM7.88383 9.95572L11.254 6.58557L10.1933 5.52491L6.82316 8.89506L7.88383 9.95572Z" fill="white"/>
</svg>
