<svg width="7" height="9" viewBox="0 0 7 9" fill="none" xmlns="http://www.w3.org/2000/svg">
<path d="M6.32441 3.15488C6.25926 3.00994 6.15369 2.88687 6.02035 2.80042C5.88701 2.71397 5.73157 2.66781 5.57267 2.66748H4.82505L5.3744 1.32095C5.42348 1.19731 5.44197 1.06365 5.42831 0.931328C5.41465 0.799008 5.36923 0.671945 5.29593 0.560943C5.21757 0.445948 5.1122 0.351925 4.98906 0.287115C4.86592 0.222305 4.72877 0.188685 4.58962 0.189201H2.79699C2.62756 0.185153 2.46099 0.233315 2.31986 0.327153C2.17873 0.420992 2.06988 0.555966 2.00807 0.71377L0.673932 4.01814C0.626157 4.14154 0.608724 4.27461 0.6231 4.40615C0.637476 4.53769 0.68324 4.66385 0.756541 4.77402C0.834899 4.88902 0.940264 4.98304 1.0634 5.04785C1.18654 5.11266 1.3237 5.14628 1.46285 5.14576H2.60286L1.85525 7.9297C1.83034 8.02055 1.83724 8.1172 1.8748 8.20359C1.91237 8.28999 1.97834 8.36095 2.06177 8.4047C2.12618 8.43559 2.19687 8.45114 2.26829 8.45014C2.32795 8.45014 2.38691 8.43722 2.4411 8.41226C2.49529 8.38731 2.54343 8.35091 2.58221 8.30557L6.21702 4.02227C6.31424 3.9022 6.37584 3.75727 6.39482 3.60394C6.41381 3.45061 6.38941 3.29504 6.32441 3.15488Z" fill="white" fill-opacity="0.25"/>
</svg>
