<svg width="14" height="15" viewBox="0 0 14 15" fill="none" xmlns="http://www.w3.org/2000/svg">
<path d="M3.68488 6.09329C4.02649 6.07242 4.44762 6.07242 4.98922 6.07242H9.62686C10.1684 6.07242 10.5896 6.07242 10.9312 6.09329M3.68488 6.09329C3.25857 6.1193 2.95611 6.17785 2.69795 6.30937C2.28891 6.51778 1.95634 6.85031 1.74793 7.25937C1.51099 7.72443 1.51099 8.33313 1.51099 9.55065V10.5651C1.51099 11.7827 1.51099 12.3914 1.74793 12.8564C1.95634 13.2655 2.28891 13.598 2.69795 13.8064C3.16297 14.0434 3.77172 14.0434 4.98922 14.0434H9.62686C10.8444 14.0434 11.4531 14.0434 11.9181 13.8064C12.3272 13.598 12.6597 13.2655 12.8681 12.8564C13.1051 12.3914 13.1051 11.7827 13.1051 10.5651V9.55065C13.1051 8.33313 13.1051 7.72443 12.8681 7.25937C12.6597 6.85031 12.3272 6.51778 11.9181 6.30937C11.66 6.17785 11.3575 6.1193 10.9312 6.09329M3.68488 6.09329V4.62316C3.68488 2.62215 5.30703 1 7.30804 1C9.30903 1 10.9312 2.62215 10.9312 4.62316V6.09329" stroke="#202439" stroke-opacity="0.25" stroke-width="1.5" stroke-linecap="round" stroke-linejoin="round"/>
</svg>
