<svg width="24" height="21" viewBox="0 0 24 21" fill="none" xmlns="http://www.w3.org/2000/svg">
<path d="M1.92364 0.196777C2.56722 0.196777 3.08845 0.718012 3.08845 1.36159V3.45323C3.08845 6.50354 3.96835 8.85496 5.703 10.4438C7.24156 11.8516 9.40024 12.5975 11.9461 12.5975C19.6523 12.5975 20.8037 6.86891 20.8037 3.45323V1.36327C20.8037 0.719687 21.3249 0.198453 21.9685 0.198453C22.6121 0.198453 23.1333 0.719687 23.1333 1.36327V3.45323C23.1333 7.54266 21.8663 10.6248 19.3674 12.6125C16.9623 14.5265 14.0025 14.9271 11.9444 14.9271C8.80527 14.9271 6.10189 13.9701 4.12757 12.1617C1.92531 10.1421 0.75882 7.13036 0.75882 3.45323V1.36327C0.75882 0.719687 1.28005 0.196777 1.92364 0.196777Z" fill="#202439"/>
<path d="M7.36558 0.19342H16.5299C17.5221 0.19342 18.3249 0.996222 18.3249 1.98841C18.3249 6.29571 16.0003 8.76613 11.9477 8.76613C7.89519 8.76613 5.57059 6.29571 5.57059 1.98841C5.57059 0.996222 6.37339 0.19342 7.36558 0.19342ZM15.0651 2.52473H8.80861C8.30413 2.52473 7.93541 2.98898 8.0343 3.48172C8.43318 5.4661 9.7237 6.4365 11.9477 6.4365C13.4377 6.4365 15.35 6.09627 15.8629 3.48507C15.9601 2.98563 15.5713 2.52473 15.0651 2.52473Z" fill="#ED6929"/>
<path d="M11.9477 12.5958C16.0003 12.5958 18.3249 15.0662 18.3249 19.3735V19.5059C18.3249 20.1109 17.8305 20.6053 17.2255 20.6053C16.5484 20.6053 15.9936 20.0506 15.9936 19.3735C15.9936 15.3863 13.6841 14.9254 11.9477 14.9254C9.22425 14.9254 7.90022 16.3802 7.90022 19.3735V19.5059C7.90022 20.1109 7.4058 20.6053 6.80076 20.6053C6.12366 20.6053 5.56891 20.0506 5.56891 19.3735C5.57058 15.0662 7.89519 12.5958 11.9477 12.5958Z" fill="#202439"/>
</svg>
