<svg width="18" height="4" viewBox="0 0 18 4" fill="none" xmlns="http://www.w3.org/2000/svg">
<path d="M3.80246 2C3.80246 2.9665 3.01896 3.75 2.05246 3.75C1.08596 3.75 0.30246 2.9665 0.30246 2C0.30246 1.0335 1.08596 0.25 2.05246 0.25C3.01896 0.25 3.80246 1.0335 3.80246 2Z" fill="black"/>
<path d="M10.8025 2C10.8025 2.9665 10.019 3.75 9.05246 3.75C8.08596 3.75 7.30246 2.9665 7.30246 2C7.30246 1.0335 8.08596 0.25 9.05246 0.25C10.019 0.25 10.8025 1.0335 10.8025 2Z" fill="black"/>
<path d="M17.8025 2C17.8025 2.9665 17.019 3.75 16.0525 3.75C15.086 3.75 14.3025 2.9665 14.3025 2C14.3025 1.0335 15.086 0.25 16.0525 0.25C17.019 0.25 17.8025 1.0335 17.8025 2Z" fill="black"/>
</svg>
